<?xml version="1.0" encoding="utf-8"?>
<!-- Generator: Adobe Illustrator 26.0.3, SVG Export Plug-In . SVG Version: 6.00 Build 0)  -->
<svg version="1.1" id="Laag_1" xmlns="http://www.w3.org/2000/svg" xmlns:xlink="http://www.w3.org/1999/xlink" x="0px" y="0px"
	 viewBox="0 0 270.5 287.7" style="enable-background:new 0 0 270.5 287.7;" xml:space="preserve">
<style type="text/css">
	.st0{fill:url(#SVGID_1_);}
	.st1{fill:url(#SVGID_00000121960582799074419720000004821344273257500288_);}
	.st2{fill:url(#SVGID_00000102531101073932875560000004850699374652535734_);}
	.st3{fill:url(#SVGID_00000159440959073384864400000016197370851333193656_);}
	.st4{fill:url(#SVGID_00000159448729775170235120000005136953234499361702_);}
	.st5{fill:url(#SVGID_00000045576488086247544120000013965561837276572829_);}
	.st6{fill:url(#SVGID_00000150815238250895728990000005339351192751891899_);}
	.st7{fill:url(#SVGID_00000128476849961942298380000011295201733027635086_);}
	.st8{fill:url(#SVGID_00000037660565950756288650000013349660460644689843_);}
	.st9{fill:url(#SVGID_00000182527671495171096170000011860719863164623762_);}
	.st10{fill:url(#SVGID_00000096053347618166403940000016178748326533738907_);}
	.st11{fill:url(#SVGID_00000178920778964721013730000016462454828513606026_);}
	.st12{fill:url(#SVGID_00000065795611237419286330000000269451892712192413_);}
	.st13{fill:url(#SVGID_00000042008821377210548520000015261693007313235890_);}
	.st14{fill:url(#SVGID_00000165194185688721345260000006584350190514108852_);}
	.st15{fill:url(#SVGID_00000156569708026323508560000006301516184869190574_);}
	.st16{fill:url(#SVGID_00000176005974447021879690000014268481778835588271_);}
	.st17{fill:#004C23;}
</style>
<linearGradient id="SVGID_1_" gradientUnits="userSpaceOnUse" x1="31.4752" y1="44.3496" x2="234.038" y2="44.3496">
	<stop  offset="0" style="stop-color:#EB595B"/>
	<stop  offset="0.4646" style="stop-color:#EB5D5A"/>
	<stop  offset="0.9251" style="stop-color:#EC6756"/>
	<stop  offset="1" style="stop-color:#ED6955"/>
</linearGradient>
<path class="st0" d="M88.9,52.9c1-0.7,1.9-1.5,2.5-2.5c0.7-1,1.2-2,1.5-3.2c0.6-2.3,0.5-5-0.7-7.5c-1.2-2.5-3.3-4.2-5.9-4.9
	c-1.3-0.3-2.7-0.5-4.1-0.3c-1.4,0.3-2.7,0.8-4,1.6c-2.6,1.6-4.3,4-4.7,6.7c-0.5,2.6,0.2,5.3,1.9,7.4C79.1,54.5,84.8,55.3,88.9,52.9z
	"/>
<linearGradient id="SVGID_00000060008401063997415830000006882250335096449674_" gradientUnits="userSpaceOnUse" x1="31.4752" y1="183.73" x2="234.038" y2="183.73">
	<stop  offset="0" style="stop-color:#EB595B"/>
	<stop  offset="0.4646" style="stop-color:#EB5D5A"/>
	<stop  offset="0.9251" style="stop-color:#EC6756"/>
	<stop  offset="1" style="stop-color:#ED6955"/>
</linearGradient>
<path style="fill:url(#SVGID_00000060008401063997415830000006882250335096449674_);" d="M202.2,193.6c1.3,0,2.7-0.3,4-0.9
	c1.3-0.6,2.4-1.5,3.4-2.7c4.2-4.6,3.2-11.3-1.3-14.3c-4.6-3.1-10.3-2.3-13.6,1.2c-0.7,0.8-1.2,1.8-1.6,2.9l6.3,13.4
	C200.3,193.5,201.3,193.6,202.2,193.6z"/>
<linearGradient id="SVGID_00000096749010615466023790000005813285444031379844_" gradientUnits="userSpaceOnUse" x1="31.4752" y1="122.1141" x2="234.038" y2="122.1141">
	<stop  offset="0" style="stop-color:#EB595B"/>
	<stop  offset="0.4646" style="stop-color:#EB5D5A"/>
	<stop  offset="0.9251" style="stop-color:#EC6756"/>
	<stop  offset="1" style="stop-color:#ED6955"/>
</linearGradient>
<path style="fill:url(#SVGID_00000096749010615466023790000005813285444031379844_);" d="M100.8,114c-2.2-0.6-4.5-0.2-6.4,1.3
	c-1,0.7-1.7,1.7-2.3,2.9c-0.6,1.2-0.9,2.6-0.9,4c-0.1,1.5,0.3,2.8,0.8,4.1c0.5,1.2,1.3,2.2,2.2,3c0.6,0.5,1.3,0.9,2,1.2l6.8-15.5
	C102.4,114.6,101.6,114.3,100.8,114z"/>
<linearGradient id="SVGID_00000013915590901078236320000015874730485106160825_" gradientUnits="userSpaceOnUse" x1="31.4752" y1="66.3218" x2="234.038" y2="66.3218">
	<stop  offset="0" style="stop-color:#EB595B"/>
	<stop  offset="0.4646" style="stop-color:#EB5D5A"/>
	<stop  offset="0.9251" style="stop-color:#EC6756"/>
	<stop  offset="1" style="stop-color:#ED6955"/>
</linearGradient>
<path style="fill:url(#SVGID_00000013915590901078236320000015874730485106160825_);" d="M110.2,74.1c1.8-1,3.2-2.3,4-4.2
	c0.8-1.9,1-4.2,0.4-6.5c-0.7-2.2-2.2-3.9-4.3-4.8c-2.1-0.8-4.7-1-7.1,0.2c-4.9,2.2-6.4,7.9-3.9,11.7
	C101.9,74.4,106.6,75.6,110.2,74.1z"/>
<linearGradient id="SVGID_00000150059955190419714240000005213916339993612213_" gradientUnits="userSpaceOnUse" x1="31.4752" y1="122.2945" x2="234.038" y2="122.2945">
	<stop  offset="0" style="stop-color:#EB595B"/>
	<stop  offset="0.4646" style="stop-color:#EB5D5A"/>
	<stop  offset="0.9251" style="stop-color:#EC6756"/>
	<stop  offset="1" style="stop-color:#ED6955"/>
</linearGradient>
<path style="fill:url(#SVGID_00000150059955190419714240000005213916339993612213_);" d="M170.9,129.8c1-0.7,1.7-1.7,2.3-2.9
	c0.6-1.2,0.9-2.6,0.9-4c0.1-1.5-0.3-2.8-0.8-4.1c-0.5-1.2-1.3-2.2-2.2-3c-1.8-1.5-4.1-2-6.4-1.4c-0.7,0.2-1.3,0.4-1.9,0.7l7.2,15.3
	C170.2,130.2,170.6,130,170.9,129.8z"/>
<linearGradient id="SVGID_00000060014897735443127690000004664810036744422328_" gradientUnits="userSpaceOnUse" x1="31.4752" y1="101.0487" x2="234.038" y2="101.0487">
	<stop  offset="0" style="stop-color:#EB595B"/>
	<stop  offset="0.4646" style="stop-color:#EB5D5A"/>
	<stop  offset="0.9251" style="stop-color:#EC6756"/>
	<stop  offset="1" style="stop-color:#ED6955"/>
</linearGradient>
<path style="fill:url(#SVGID_00000060014897735443127690000004664810036744422328_);" d="M72.2,109.3c2.3,0.5,4.6,0.1,6.4-0.9
	c0.9-0.5,1.7-1.1,2.3-1.8c0.7-0.7,1.3-1.5,1.6-2.5c0.6-1.9,0.6-3.9-0.2-5.8c-0.8-1.9-2.3-3.7-4.3-4.8c-2-1.1-4.3-1.2-6.4-0.4
	c-2.1,0.8-4,2.6-4.9,5.1c-0.4,1.2-0.6,2.5-0.6,3.7c0.1,1.2,0.5,2.4,1,3.4C68.1,107.4,69.9,108.8,72.2,109.3z"/>
<linearGradient id="SVGID_00000117641072170412677030000016521460033411384213_" gradientUnits="userSpaceOnUse" x1="31.4752" y1="83.3863" x2="234.038" y2="83.3863">
	<stop  offset="0" style="stop-color:#EB595B"/>
	<stop  offset="0.4646" style="stop-color:#EB5D5A"/>
	<stop  offset="0.9251" style="stop-color:#EC6756"/>
	<stop  offset="1" style="stop-color:#ED6955"/>
</linearGradient>
<path style="fill:url(#SVGID_00000117641072170412677030000016521460033411384213_);" d="M45.6,92.7c2.6,0.9,5.3,0.7,7.5-0.3
	c2.1-1,4.2-2.5,5.2-4.7c0.5-1.1,0.7-2.3,0.8-3.5c0.1-1.2-0.1-2.3-0.4-3.5c-0.7-2.3-2.3-4.5-4.7-5.9c-2.3-1.4-5-1.7-7.5-0.9
	c-1.3,0.4-2.5,1.1-3.6,2c-1.1,0.9-1.9,2.1-2.5,3.5c-1.2,2.8-1.5,5.7-0.3,8.1C41,90,43,91.9,45.6,92.7z"/>
<linearGradient id="SVGID_00000141457264199213324560000007218979533081732260_" gradientUnits="userSpaceOnUse" x1="31.4753" y1="135.0334" x2="234.0381" y2="135.0334">
	<stop  offset="0" style="stop-color:#EB595B"/>
	<stop  offset="0.4646" style="stop-color:#EB5D5A"/>
	<stop  offset="0.9251" style="stop-color:#EC6756"/>
	<stop  offset="1" style="stop-color:#ED6955"/>
</linearGradient>
<path style="fill:url(#SVGID_00000141457264199213324560000007218979533081732260_);" d="M35.7,143.3c2.2,1.5,4.9,2,7.6,1.3
	c2.7-0.7,4.8-2.3,6.1-4.3c1.5-2,2.2-4.4,1.8-6.8c-0.5-2.4-1.5-4.5-3.5-6c-1.9-1.5-4.4-2.5-7.2-2.5c-2.7,0.1-5.1,1.3-6.8,3.3
	c-1.6,2-2.8,4.9-2.2,7.9C32.1,139.3,33.7,141.8,35.7,143.3z"/>
<linearGradient id="SVGID_00000096023222836504955490000006402795446437783740_" gradientUnits="userSpaceOnUse" x1="31.4752" y1="182.6648" x2="234.038" y2="182.6648">
	<stop  offset="0" style="stop-color:#EB595B"/>
	<stop  offset="0.4646" style="stop-color:#EB5D5A"/>
	<stop  offset="0.9251" style="stop-color:#EC6756"/>
	<stop  offset="1" style="stop-color:#ED6955"/>
</linearGradient>
<path style="fill:url(#SVGID_00000096023222836504955490000006402795446437783740_);" d="M52.7,181.1c-0.3,2.6,0.6,5.4,2.4,7.8
	c4.1,4.6,10.6,4.8,14.3,0.8c3.7-4,4-10.1,0.7-13.6c-1.5-1.9-3.7-3-6.2-3.2c-2.5-0.2-5,0.2-7.3,1.8C54.4,176.1,52.9,178.5,52.7,181.1
	z"/>
<linearGradient id="SVGID_00000113318246067097719070000009517537022644554885_" gradientUnits="userSpaceOnUse" x1="31.4752" y1="148.7075" x2="234.038" y2="148.7075">
	<stop  offset="0" style="stop-color:#EB595B"/>
	<stop  offset="0.4646" style="stop-color:#EB5D5A"/>
	<stop  offset="0.9251" style="stop-color:#EC6756"/>
	<stop  offset="1" style="stop-color:#ED6955"/>
</linearGradient>
<path style="fill:url(#SVGID_00000113318246067097719070000009517537022644554885_);" d="M79.9,141c-1.9-0.8-4.2-1-6.5-0.4
	c-2.2,0.7-3.9,2.2-4.8,4.3c-0.8,2.1-1,4.7,0.2,7.1c2.2,5,7.9,6.4,11.7,3.9c3.9-2.6,5.2-7.3,3.6-10.9C83.1,143.2,81.8,141.8,79.9,141
	z"/>
<linearGradient id="SVGID_00000026854428364359525950000012877132337961876396_" gradientUnits="userSpaceOnUse" x1="31.4752" y1="64.4149" x2="234.038" y2="64.4149">
	<stop  offset="0" style="stop-color:#EB595B"/>
	<stop  offset="0.4646" style="stop-color:#EB5D5A"/>
	<stop  offset="0.9251" style="stop-color:#EC6756"/>
	<stop  offset="1" style="stop-color:#ED6955"/>
</linearGradient>
<path style="fill:url(#SVGID_00000026854428364359525950000012877132337961876396_);" d="M148.5,70.8c0.7,0.7,1.5,1.3,2.5,1.6
	c1.9,0.6,3.9,0.6,5.8-0.2c1.9-0.8,3.7-2.3,4.8-4.3c1.1-2,1.2-4.3,0.4-6.4c-0.8-2.1-2.6-4-5.1-4.9c-1.2-0.4-2.5-0.6-3.7-0.6
	c-1.2,0.1-2.4,0.5-3.4,1c-2,1.1-3.4,2.9-3.9,5.2c-0.5,2.3-0.1,4.6,0.9,6.4C147.2,69.4,147.8,70.2,148.5,70.8z"/>
<linearGradient id="SVGID_00000049942066052090740540000001035548442996118708_" gradientUnits="userSpaceOnUse" x1="31.4752" y1="96.4" x2="234.038" y2="96.4">
	<stop  offset="0" style="stop-color:#EB595B"/>
	<stop  offset="0.4646" style="stop-color:#EB5D5A"/>
	<stop  offset="0.9251" style="stop-color:#EC6756"/>
	<stop  offset="1" style="stop-color:#ED6955"/>
</linearGradient>
<path style="fill:url(#SVGID_00000049942066052090740540000001035548442996118708_);" d="M184.7,89.2c-3.9,2.6-5.2,7.3-3.6,10.9
	c1,1.8,2.3,3.2,4.2,4c1.9,0.8,4.2,1,6.5,0.4c2.2-0.7,3.9-2.2,4.8-4.3c0.8-2.1,1-4.7-0.2-7.1C194.2,88.1,188.5,86.6,184.7,89.2z"/>
<linearGradient id="SVGID_00000045591522943343775720000015855310614009838993_" gradientUnits="userSpaceOnUse" x1="31.4752" y1="84.6712" x2="234.038" y2="84.6712">
	<stop  offset="0" style="stop-color:#EB595B"/>
	<stop  offset="0.4646" style="stop-color:#EB5D5A"/>
	<stop  offset="0.9251" style="stop-color:#EC6756"/>
	<stop  offset="1" style="stop-color:#ED6955"/>
</linearGradient>
<path style="fill:url(#SVGID_00000045591522943343775720000015855310614009838993_);" d="M220.8,94.1c5.2-1.6,7.8-7.6,5.5-13.3
	c-2.7-5.5-8.8-7.7-13.6-4.8c-4.5,2.8-6.7,8.6-4.5,12.8C209.9,93.3,215.5,95.7,220.8,94.1z"/>
<linearGradient id="SVGID_00000111173275579153628820000017923895290296161664_" gradientUnits="userSpaceOnUse" x1="31.4752" y1="136.485" x2="234.038" y2="136.485">
	<stop  offset="0" style="stop-color:#EB595B"/>
	<stop  offset="0.4646" style="stop-color:#EB5D5A"/>
	<stop  offset="0.9251" style="stop-color:#EC6756"/>
	<stop  offset="1" style="stop-color:#ED6955"/>
</linearGradient>
<path style="fill:url(#SVGID_00000111173275579153628820000017923895290296161664_);" d="M225.1,126.6c-2.7-0.1-5.2,0.9-7.1,2.4
	c-1.8,1.5-3.4,3.6-3.6,6c-0.2,2.4,0.3,4.8,1.6,6.8c1.4,2,3.5,3.7,6.2,4.4c2.6,0.7,5.3,0.2,7.5-1.2c2.2-1.5,4-3.9,4.3-7
	c0.4-3-0.2-5.9-2-7.9C230.3,127.9,227.8,126.7,225.1,126.6z"/>
<linearGradient id="SVGID_00000142155302564667248230000015887186603264979077_" gradientUnits="userSpaceOnUse" x1="31.4752" y1="144.059" x2="234.038" y2="144.059">
	<stop  offset="0" style="stop-color:#EB595B"/>
	<stop  offset="0.4646" style="stop-color:#EB5D5A"/>
	<stop  offset="0.9251" style="stop-color:#EC6756"/>
	<stop  offset="1" style="stop-color:#ED6955"/>
</linearGradient>
<path style="fill:url(#SVGID_00000142155302564667248230000015887186603264979077_);" d="M193,135.8c-2.3-0.5-4.6-0.1-6.4,0.9
	c-0.9,0.5-1.7,1.1-2.3,1.8c-0.7,0.7-1.3,1.5-1.6,2.5c-0.6,1.9-0.6,3.9,0.2,5.8c0.8,1.9,2.3,3.7,4.3,4.8c2,1.1,4.3,1.2,6.4,0.4
	c2.1-0.8,4-2.6,4.9-5.1c0.4-1.2,0.6-2.5,0.6-3.7c-0.1-1.2-0.5-2.4-1-3.4C197.1,137.7,195.3,136.3,193,135.8z"/>
<linearGradient id="SVGID_00000009558263697619760410000008267217035129625269_" gradientUnits="userSpaceOnUse" x1="31.4752" y1="45.1948" x2="234.038" y2="45.1948">
	<stop  offset="0" style="stop-color:#EB595B"/>
	<stop  offset="0.4646" style="stop-color:#EB5D5A"/>
	<stop  offset="0.9251" style="stop-color:#EC6756"/>
	<stop  offset="1" style="stop-color:#ED6955"/>
</linearGradient>
<path style="fill:url(#SVGID_00000009558263697619760410000008267217035129625269_);" d="M178,53.6c2,1.4,4.4,1.8,6.9,1.3
	c2.4-0.5,4.7-1.6,6.5-3.7c1.7-2.1,2.5-4.8,2-7.4c-0.5-2.5-2.1-5-4.6-6.8c-2.5-1.7-5.6-2-8.1-1.4c-2.5,0.6-4.7,2.3-5.9,4.7
	C172.5,45.2,173.9,51.1,178,53.6z"/>
<linearGradient id="SVGID_00000005251731430928337860000009288949736020147121_" gradientUnits="userSpaceOnUse" x1="31.4752" y1="30.2339" x2="234.038" y2="30.2339">
	<stop  offset="0" style="stop-color:#EB595B"/>
	<stop  offset="0.4646" style="stop-color:#EB5D5A"/>
	<stop  offset="0.9251" style="stop-color:#EC6756"/>
	<stop  offset="1" style="stop-color:#ED6955"/>
</linearGradient>
<path style="fill:url(#SVGID_00000005251731430928337860000009288949736020147121_);" d="M127.1,37.5c0.9,0.8,1.9,1.5,3,1.9
	c1.1,0.4,2.2,0.6,3.5,0.7c2.4,0.1,4.7-0.9,6.5-2.7c1.8-1.6,3.1-3.9,3.5-6.6c0.3-2.7-0.5-5.4-2.3-7.3c-1.8-1.9-4.5-3.1-7.5-3.2
	c-3-0.2-5.8,1.3-7.5,3.2c-1.8,1.9-2.7,4.4-2.4,7.2C124,33.4,125.3,35.8,127.1,37.5z"/>
<g>
	<path class="st17" d="M199.4,193.2l-6.3-13.4l-23.2-49.4l-7.2-15.3L138,62.5c-1-2-3-3.3-5.2-3.3h-1.2c-2.3,0-4.4,1.4-5.3,3.4
		l-18.6,42.2l-0.1,0.2l0,0l-4.4,10l-6.8,15.5L39.5,259.2c-1.2,2.6-0.2,5.5,1.8,7c0.9,0.7,2.1,1.1,3.4,1.1h5.8c2.3,0,4.4-1.4,5.3-3.4
		l36.3-82.3l10.2-23.1l25.1-56.8c0.1-0.2,0.3-0.4,0.4-0.6c0.2-0.3,0.4-0.6,0.6-0.9c0.3-0.3,0.6-0.5,0.9-0.7c0.2-0.1,0.3-0.3,0.6-0.4
		c0.1,0,0.1,0,0.2,0c0.4-0.2,0.7-0.2,1.1-0.3c0.3-0.1,0.6-0.2,0.9-0.2c0.3,0,0.5,0.1,0.8,0.1c0.4,0.1,0.8,0.1,1.2,0.3
		c0,0,0.1,0,0.2,0c0.2,0.1,0.4,0.3,0.6,0.4c0.3,0.2,0.7,0.4,1,0.7c0.3,0.3,0.5,0.6,0.7,0.9c0.1,0.2,0.3,0.4,0.4,0.6l26.9,56.9
		l11.6,24.6l38.2,81c1,2,3,3.3,5.2,3.3h6c0,0,0.1,0,0.1,0c4.2-0.1,6.9-4.4,5.1-8.2L199.4,193.2z"/>
	<path class="st17" d="M185.5,228.8c-1-2-3-3.3-5.2-3.3h-4.6H119c-2.3,0-4.4,1.4-5.3,3.4l-2.6,5.9c-1.7,3.8,1.1,8.1,5.3,8.1h52.3
		c2.2,0,4.3,1.3,5.2,3.3l0.9,2l7.4,15.8c1,2,3,3.3,5.2,3.3h7c4.2,0,7-4.4,5.2-8.3L185.5,228.8z"/>
	<path class="st17" d="M113.6,204.5l14.6-33c2-4.5,8.4-4.6,10.5-0.1l8.4,17.8c1.8,3.8-1,8.3-5.2,8.3h-10.4c-2.3,0-4.4,1.4-5.3,3.5
		l-2.6,5.9c-1.7,3.8,1.1,8.1,5.3,8.1h20.1h18.7h2.1c4.2,0,7-4.4,5.2-8.3l-10.4-22l-6.7-14.2l-5.6-11.9L137.9,128
		c-2.1-4.5-8.5-4.4-10.5,0.1L114,158.5l-6.6,14.9l-4.4,10l-10.9,24.6l-22.6,51.3c-1.7,3.8,1.1,8.1,5.3,8.1H82c2.3,0,4.4-1.3,5.3-3.4
		l6.9-15.7l12.1-27.3L113.6,204.5z"/>
</g>
</svg>
